<svg clip-rule="evenodd" fill-rule="evenodd" stroke-linejoin="round" stroke-miterlimit="2" viewBox="0 0 2153 464" xmlns="http://www.w3.org/2000/svg"><g fill="#4c4c4c" fill-rule="nonzero"><path d="m143.262 463.77c-31.641 0-58.545-3.272-80.713-9.815s-43.018-14.6-62.549-24.17v-72.656h4.102c19.14 17.969 40.82 31.885 65.039 41.748 24.218 9.863 47.558 14.795 70.019 14.795 32.031 0 56.25-6.69 72.656-20.068 16.407-13.379 24.61-31.006 24.61-52.881 0-17.383-4.297-31.543-12.891-42.481-8.594-10.937-22.265-19.043-41.015-24.316-13.477-3.906-25.782-7.129-36.915-9.668-11.132-2.539-25.097-5.957-41.894-10.254-15.039-3.906-28.516-8.887-40.43-14.941-11.914-6.055-22.461-13.965-31.64-23.731-8.985-9.57-15.967-20.85-20.948-33.838-4.98-12.988-7.47-27.978-7.47-44.971 0-35.351 13.769-64.99 41.308-88.916 27.539-23.925 62.696-35.888 105.469-35.888 24.414 0 47.51 2.441 69.287 7.324s41.943 11.816 60.498 20.801v69.433h-4.394c-13.868-12.695-31.641-23.779-53.321-33.252-21.679-9.472-44.433-14.209-68.261-14.209-26.954 0-48.731 6.299-65.332 18.897-16.602 12.598-24.903 29.15-24.903 49.658 0 18.555 4.883 33.301 14.649 44.238 9.765 10.938 23.925 18.946 42.48 24.024 12.305 3.32 27.344 7.08 45.117 11.279 17.774 4.199 32.52 8.057 44.239 11.572 30.078 9.18 52.05 23.047 65.918 41.602 13.867 18.555 20.8 41.406 20.8 68.555 0 16.992-3.466 33.789-10.4 50.39-6.934 16.602-16.65 30.664-29.15 42.188-14.063 12.695-29.932 22.461-47.608 29.297s-39.795 10.254-66.357 10.254z"/><path d="m509.824 463.477c-52.148 0-92.627-14.698-121.435-44.092-28.809-29.395-43.213-71.143-43.213-125.244 0-53.321 13.965-95.752 41.894-127.295 27.93-31.543 64.453-47.315 109.571-47.315 20.312 0 38.281 2.93 53.906 8.789 15.625 5.86 29.297 15.039 41.016 27.539 11.718 12.5 20.703 27.784 26.953 45.85s9.375 40.186 9.375 66.357v29.883h-226.758c0 38.086 9.57 67.188 28.711 87.305 19.14 20.117 45.605 30.176 79.394 30.176 12.11 0 23.975-1.368 35.596-4.102s22.119-6.25 31.494-10.547c9.961-4.492 18.36-8.838 25.195-13.037 6.836-4.199 12.5-8.154 16.993-11.865h3.222v60.058c-6.445 2.54-14.453 5.713-24.023 9.522s-18.164 6.787-25.781 8.936c-10.743 2.929-20.459 5.175-29.151 6.738-8.691 1.562-19.678 2.344-32.959 2.344zm64.453-207.715c-.39-14.844-2.148-27.637-5.273-38.379s-7.617-19.824-13.477-27.246c-6.445-8.203-14.697-14.453-24.756-18.75-10.058-4.297-22.509-6.446-37.353-6.446-14.648 0-27.1 2.198-37.354 6.592-10.253 4.395-19.58 10.791-27.978 19.19-8.203 8.593-14.453 18.115-18.75 28.564s-7.031 22.608-8.203 36.475z"/><path d="m955.781 455.859h-55.078v-186.328c0-15.039-.732-29.052-2.197-42.041-1.465-12.988-4.248-23.388-8.35-31.201-4.492-8.203-10.742-14.307-18.75-18.31-8.008-4.004-18.945-6.006-32.812-6.006-13.672 0-27.783 3.662-42.334 10.986s-28.76 16.846-42.627 28.564v244.336h-55.078v-327.246h55.078v36.328c16.406-14.648 32.617-25.879 48.633-33.691 16.015-7.813 32.91-11.719 50.683-11.719 32.227 0 57.422 10.596 75.586 31.787 18.164 21.192 27.246 51.905 27.246 92.139z"/><path d="m1147.15 462.305c-30.078 0-53.515-8.545-70.312-25.635s-25.195-44.092-25.195-81.006v-181.348h-37.207v-45.703h37.207v-94.043h55.078v94.043h101.367v45.703h-101.367v155.567c0 16.601.293 29.394.879 38.379.586 8.984 2.832 17.383 6.738 25.195 3.32 6.836 8.691 11.963 16.113 15.381s17.481 5.127 30.176 5.127c8.984 0 17.676-1.319 26.074-3.955 8.399-2.637 14.453-4.834 18.164-6.592h3.223v49.512c-10.352 2.929-20.85 5.224-31.494 6.884-10.645 1.661-20.459 2.491-29.444 2.491z"/><path d="m1320.06 455.859h-55.079v-327.246h55.079zm3.808-382.031h-62.695v-57.129h62.695z"/><path d="m1673.14 455.859h-55.079v-186.328c0-15.039-.732-29.052-2.197-42.041-1.465-12.988-4.248-23.388-8.349-31.201-4.493-8.203-10.743-14.307-18.75-18.31-8.008-4.004-18.946-6.006-32.813-6.006-13.672 0-27.783 3.662-42.334 10.986s-28.76 16.846-42.627 28.564v244.336h-55.078v-327.246h55.078v36.328c16.406-14.648 32.617-25.879 48.633-33.691 16.016-7.813 32.91-11.719 50.683-11.719 32.227 0 57.422 10.596 75.586 31.787 18.164 21.192 27.247 51.905 27.247 92.139z"/><path d="m1907.58 463.477c-52.148 0-92.627-14.698-121.435-44.092-28.809-29.395-43.213-71.143-43.213-125.244 0-53.321 13.965-95.752 41.894-127.295 27.93-31.543 64.453-47.315 109.571-47.315 20.312 0 38.281 2.93 53.906 8.789 15.625 5.86 29.297 15.039 41.015 27.539 11.719 12.5 20.704 27.784 26.954 45.85s9.375 40.186 9.375 66.357v29.883h-226.758c0 38.086 9.57 67.188 28.711 87.305 19.14 20.117 45.605 30.176 79.394 30.176 12.11 0 23.975-1.368 35.596-4.102s22.119-6.25 31.494-10.547c9.961-4.492 18.359-8.838 25.195-13.037s12.5-8.154 16.993-11.865h3.222v60.058c-6.445 2.54-14.453 5.713-24.023 9.522-9.571 3.809-18.164 6.787-25.782 8.936-10.742 2.929-20.458 5.175-29.15 6.738-8.691 1.562-19.678 2.344-32.959 2.344zm64.453-207.715c-.39-14.844-2.148-27.637-5.273-38.379s-7.617-19.824-13.477-27.246c-6.445-8.203-14.697-14.453-24.756-18.75-10.058-4.297-22.509-6.446-37.353-6.446-14.649 0-27.1 2.198-37.354 6.592-10.254 4.395-19.58 10.791-27.978 19.19-8.203 8.593-14.453 18.115-18.75 28.564s-7.031 22.608-8.203 36.475z"/><path d="m2097.48 0h55.078v455.859h-55.078z"/></g></svg>