<?xml version="1.0" encoding="UTF-8" standalone="no"?><!DOCTYPE svg PUBLIC "-//W3C//DTD SVG 1.1//EN" "http://www.w3.org/Graphics/SVG/1.1/DTD/svg11.dtd"><svg width="100%" height="100%" viewBox="0 0 1094 1250" version="1.1" xmlns="http://www.w3.org/2000/svg" xmlns:xlink="http://www.w3.org/1999/xlink" xml:space="preserve" xmlns:serif="http://www.serif.com/" style="fill-rule:evenodd;clip-rule:evenodd;stroke-linejoin:round;stroke-miterlimit:2;"><g id="Final-Logo" serif:id="Final Logo"><g id="Final-black" serif:id="Final black"><path id="Bottom" d="M1035.16,661.583l-96.434,-37.6l-445.111,-172.968l0,112.171l432.2,169.117c-73.215,175.18 -203.721,319.066 -369.529,399.365c-4.013,1.957 -7.682,3.679 -10.946,5.189c-3.262,-1.51 -6.915,-3.232 -10.945,-5.189c-169.52,-82.098 -307.435,-231.728 -379.971,-410.284l-119.255,-45.218c70.526,243.654 236.806,444.217 457.023,550.883c21.233,10.286 34.014,15.383 35.409,15.936l17.739,7.015l17.754,-7.015c1.389,-0.553 14.177,-5.65 35.397,-15.936c103.757,-50.253 195.319,-120.672 272.157,-209.273c75.48,-87.078 133.065,-187.398 171.132,-298.177l16.801,-48.886l-23.421,-9.13Z" style="fill-rule:nonzero;"/><path id="Top" d="M1.053,147.198c-0,-0 50.704,-0.331 50.704,-0.331c0.77,0 20.263,-0.226 51.395,-2.295c92.063,-6.137 285.991,-28.462 398.819,-109.242c4.116,-2.956 8.12,-5.963 12,-9.058l32.924,-26.272l32.93,26.272c3.881,3.095 7.873,6.102 11.994,9.058c112.825,80.763 306.723,103.105 398.815,109.242c31.146,2.069 50.646,2.295 51.418,2.295l50.645,0.383c0,-0 1.053,266.658 1.053,266.658c0,51.303 -3.498,95.446 -8.197,131.524l-95.28,-34.832c2.717,-26.972 3.015,-61.26 3.03,-96.613l-2.669,-172.587c-95.698,-5.755 -304.644,-28.462 -443.739,-117.849c-112.105,72.035 -269.606,100.793 -376.609,112.233c-25.744,2.747 -48.566,4.503 -67.134,5.616c0,0 -2.7,172.665 -2.7,172.665c-0.051,18.617 0.527,37.352 1.719,55.995l492.746,196.341l-0,112.459l-586.651,-233.863l-3.301,-31.95c-3.392,-32.82 -5.061,-66.229 -4.961,-99.31l1.049,-266.539Z" style="fill-rule:nonzero;"/></g></g><g id="Color-Alternatives" serif:id="Color Alternatives"></g></svg>