<?xml version="1.0" encoding="UTF-8" standalone="no"?>
<svg
   xmlns:dc="http://purl.org/dc/elements/1.1/"
   xmlns:cc="http://creativecommons.org/ns#"
   xmlns:rdf="http://www.w3.org/1999/02/22-rdf-syntax-ns#"
   xmlns:svg="http://www.w3.org/2000/svg"
   xmlns="http://www.w3.org/2000/svg"
   id="svg18"
   style="fill-rule:evenodd;clip-rule:evenodd;stroke-linejoin:round;stroke-miterlimit:2;"
   xml:space="preserve"
   version="1.1"
   viewBox="0 0 2153 464"
   height="100%"
   width="100%"><metadata
     id="metadata24"><rdf:RDF><cc:Work
         rdf:about=""><dc:format>image/svg+xml</dc:format><dc:type
           rdf:resource="http://purl.org/dc/dcmitype/StillImage" /></cc:Work></rdf:RDF></metadata><defs
     id="defs22" /><path
     id="path2"
     style="fill-rule:nonzero;"
     d="M143.262,463.77c-31.641,-0 -58.545,-3.272 -80.713,-9.815c-22.168,-6.543 -43.018,-14.6 -62.549,-24.17l0,-72.656l4.102,-0c19.14,17.969 40.82,31.885 65.039,41.748c24.218,9.863 47.558,14.795 70.019,14.795c32.031,-0 56.25,-6.69 72.656,-20.068c16.407,-13.379 24.61,-31.006 24.61,-52.881c-0,-17.383 -4.297,-31.543 -12.891,-42.481c-8.594,-10.937 -22.265,-19.043 -41.015,-24.316c-13.477,-3.906 -25.782,-7.129 -36.915,-9.668c-11.132,-2.539 -25.097,-5.957 -41.894,-10.254c-15.039,-3.906 -28.516,-8.887 -40.43,-14.941c-11.914,-6.055 -22.461,-13.965 -31.64,-23.731c-8.985,-9.57 -15.967,-20.85 -20.948,-33.838c-4.98,-12.988 -7.47,-27.978 -7.47,-44.971c-0,-35.351 13.769,-64.99 41.308,-88.916c27.539,-23.925 62.696,-35.888 105.469,-35.888c24.414,-0 47.51,2.441 69.287,7.324c21.777,4.883 41.943,11.816 60.498,20.801l0,69.433l-4.394,0c-13.868,-12.695 -31.641,-23.779 -53.321,-33.252c-21.679,-9.472 -44.433,-14.209 -68.261,-14.209c-26.954,0 -48.731,6.299 -65.332,18.897c-16.602,12.598 -24.903,29.15 -24.903,49.658c0,18.555 4.883,33.301 14.649,44.238c9.765,10.938 23.925,18.946 42.48,24.024c12.305,3.32 27.344,7.08 45.117,11.279c17.774,4.199 32.52,8.057 44.239,11.572c30.078,9.18 52.05,23.047 65.918,41.602c13.867,18.555 20.8,41.406 20.8,68.555c0,16.992 -3.466,33.789 -10.4,50.39c-6.934,16.602 -16.65,30.664 -29.15,42.188c-14.063,12.695 -29.932,22.461 -47.608,29.297c-17.676,6.836 -39.795,10.254 -66.357,10.254Z" /><path
     id="path4"
     style="fill-rule:nonzero;"
     d="M509.824,463.477c-52.148,-0 -92.627,-14.698 -121.435,-44.092c-28.809,-29.395 -43.213,-71.143 -43.213,-125.244c-0,-53.321 13.965,-95.752 41.894,-127.295c27.93,-31.543 64.453,-47.315 109.571,-47.315c20.312,0 38.281,2.93 53.906,8.789c15.625,5.86 29.297,15.039 41.016,27.539c11.718,12.5 20.703,27.784 26.953,45.85c6.25,18.066 9.375,40.186 9.375,66.357l-0,29.883l-226.758,0c-0,38.086 9.57,67.188 28.711,87.305c19.14,20.117 45.605,30.176 79.394,30.176c12.11,-0 23.975,-1.368 35.596,-4.102c11.621,-2.734 22.119,-6.25 31.494,-10.547c9.961,-4.492 18.36,-8.838 25.195,-13.037c6.836,-4.199 12.5,-8.154 16.993,-11.865l3.222,-0l0,60.058c-6.445,2.54 -14.453,5.713 -24.023,9.522c-9.57,3.809 -18.164,6.787 -25.781,8.936c-10.743,2.929 -20.459,5.175 -29.151,6.738c-8.691,1.562 -19.678,2.344 -32.959,2.344Zm64.453,-207.715c-0.39,-14.844 -2.148,-27.637 -5.273,-38.379c-3.125,-10.742 -7.617,-19.824 -13.477,-27.246c-6.445,-8.203 -14.697,-14.453 -24.756,-18.75c-10.058,-4.297 -22.509,-6.446 -37.353,-6.446c-14.648,0 -27.1,2.198 -37.354,6.592c-10.253,4.395 -19.58,10.791 -27.978,19.19c-8.203,8.593 -14.453,18.115 -18.75,28.564c-4.297,10.449 -7.031,22.608 -8.203,36.475l173.144,-0Z" /><path
     id="path6"
     style="fill-rule:nonzero;"
     d="M955.781,455.859l-55.078,0l0,-186.328c0,-15.039 -0.732,-29.052 -2.197,-42.041c-1.465,-12.988 -4.248,-23.388 -8.35,-31.201c-4.492,-8.203 -10.742,-14.307 -18.75,-18.31c-8.008,-4.004 -18.945,-6.006 -32.812,-6.006c-13.672,-0 -27.783,3.662 -42.334,10.986c-14.551,7.324 -28.76,16.846 -42.627,28.564l-0,244.336l-55.078,0l-0,-327.246l55.078,0l-0,36.328c16.406,-14.648 32.617,-25.879 48.633,-33.691c16.015,-7.813 32.91,-11.719 50.683,-11.719c32.227,0 57.422,10.596 75.586,31.787c18.164,21.192 27.246,51.905 27.246,92.139l0,212.402Z" /><path
     id="path8"
     style="fill-rule:nonzero;"
     d="M1147.15,462.305c-30.078,-0 -53.515,-8.545 -70.312,-25.635c-16.797,-17.09 -25.195,-44.092 -25.195,-81.006l-0,-181.348l-37.207,0l-0,-45.703l37.207,0l-0,-94.043l55.078,0l-0,94.043l101.367,0l-0,45.703l-101.367,0l-0,155.567c-0,16.601 0.293,29.394 0.879,38.379c0.586,8.984 2.832,17.383 6.738,25.195c3.32,6.836 8.691,11.963 16.113,15.381c7.422,3.418 17.481,5.127 30.176,5.127c8.984,-0 17.676,-1.319 26.074,-3.955c8.399,-2.637 14.453,-4.834 18.164,-6.592l3.223,-0l-0,49.512c-10.352,2.929 -20.85,5.224 -31.494,6.884c-10.645,1.661 -20.459,2.491 -29.444,2.491Z" /><path
     id="path10"
     style="fill-rule:nonzero;"
     d="M1320.06,455.859l-55.079,0l0,-327.246l55.079,0l-0,327.246Zm3.808,-382.031l-62.695,0l-0,-57.129l62.695,0l0,57.129Z" /><path
     id="path12"
     style="fill-rule:nonzero;"
     d="M1673.14,455.859l-55.079,0l0,-186.328c0,-15.039 -0.732,-29.052 -2.197,-42.041c-1.465,-12.988 -4.248,-23.388 -8.349,-31.201c-4.493,-8.203 -10.743,-14.307 -18.75,-18.31c-8.008,-4.004 -18.946,-6.006 -32.813,-6.006c-13.672,-0 -27.783,3.662 -42.334,10.986c-14.551,7.324 -28.76,16.846 -42.627,28.564l0,244.336l-55.078,0l-0,-327.246l55.078,0l0,36.328c16.406,-14.648 32.617,-25.879 48.633,-33.691c16.016,-7.813 32.91,-11.719 50.683,-11.719c32.227,0 57.422,10.596 75.586,31.787c18.164,21.192 27.247,51.905 27.247,92.139l-0,212.402Z" /><path
     id="path14"
     style="fill-rule:nonzero;"
     d="M1907.58,463.477c-52.148,-0 -92.627,-14.698 -121.435,-44.092c-28.809,-29.395 -43.213,-71.143 -43.213,-125.244c-0,-53.321 13.965,-95.752 41.894,-127.295c27.93,-31.543 64.453,-47.315 109.571,-47.315c20.312,0 38.281,2.93 53.906,8.789c15.625,5.86 29.297,15.039 41.015,27.539c11.719,12.5 20.704,27.784 26.954,45.85c6.25,18.066 9.375,40.186 9.375,66.357l-0,29.883l-226.758,0c-0,38.086 9.57,67.188 28.711,87.305c19.14,20.117 45.605,30.176 79.394,30.176c12.11,-0 23.975,-1.368 35.596,-4.102c11.621,-2.734 22.119,-6.25 31.494,-10.547c9.961,-4.492 18.359,-8.838 25.195,-13.037c6.836,-4.199 12.5,-8.154 16.993,-11.865l3.222,-0l0,60.058c-6.445,2.54 -14.453,5.713 -24.023,9.522c-9.571,3.809 -18.164,6.787 -25.782,8.936c-10.742,2.929 -20.458,5.175 -29.15,6.738c-8.691,1.562 -19.678,2.344 -32.959,2.344Zm64.453,-207.715c-0.39,-14.844 -2.148,-27.637 -5.273,-38.379c-3.125,-10.742 -7.617,-19.824 -13.477,-27.246c-6.445,-8.203 -14.697,-14.453 -24.756,-18.75c-10.058,-4.297 -22.509,-6.446 -37.353,-6.446c-14.649,0 -27.1,2.198 -37.354,6.592c-10.254,4.395 -19.58,10.791 -27.978,19.19c-8.203,8.593 -14.453,18.115 -18.75,28.564c-4.297,10.449 -7.031,22.608 -8.203,36.475l173.144,-0Z" /><rect
     id="rect16"
     style="fill-rule:nonzero;"
     height="455.859"
     width="55.078"
     y="0"
     x="2097.48" /></svg>